<?xml version="1.0" encoding="UTF-8"?>
<svg version="1.1" xmlns="http://www.w3.org/2000/svg" width="500" height="500">
<path d="M0 0 C165 0 330 0 500 0 C500 165 500 330 500 500 C335 500 170 500 0 500 C0 335 0 170 0 0 Z " fill="#FEFEFE" transform="translate(0,0)"/>
<path d="M0 0 C12.87504082 8.9134898 19.7121095 20.58891375 23.2734375 35.60546875 C24.53930014 43.50752039 23.71766012 51.33659774 21.66015625 59.01953125 C21.42683594 59.89351563 21.19351563 60.7675 20.953125 61.66796875 C16.89717634 74.59514759 7.69378821 85.08636073 -4.13671875 91.546875 C-16.64583553 97.50771104 -30.63023106 99.30011568 -44.21484375 96.109375 C-50.86036854 93.67216013 -56.71034684 90.28464908 -62.33984375 86.01953125 C-63.37109375 85.27703125 -64.40234375 84.53453125 -65.46484375 83.76953125 C-75.82243147 73.86227343 -82.15118827 60.13584386 -82.65234375 45.83203125 C-82.2956946 31.6255067 -77.69729948 17.14682129 -67.33984375 7.01953125 C-47.26897104 -10.0744689 -22.91466677 -13.58799538 0 0 Z " fill="#FBD845" transform="translate(219.33984375,252.98046875)"/>
<path d="M0 0 C11.69248014 7.60011209 20.91901589 18.02556462 24.24560547 31.93896484 C27.16644169 48.76854498 24.35650287 64.08730711 14.625 78.125 C6.93738021 88.49359644 -4.77273946 95.53057692 -17.375 98.125 C-32.40677792 100.12643225 -45.92858186 97.57481574 -58.41015625 88.65234375 C-59.05855469 88.14832031 -59.70695312 87.64429688 -60.375 87.125 C-61.19871094 86.50753906 -62.02242188 85.89007813 -62.87109375 85.25390625 C-73.81138407 75.95209935 -79.43294659 61.51375281 -80.59375 47.48046875 C-81.071528 33.56518456 -76.15047843 20.4109414 -67.1875 9.8125 C-62.46003018 4.88772343 -57.40078135 1.30325683 -51.375 -1.875 C-49.94607422 -2.63683594 -49.94607422 -2.63683594 -48.48828125 -3.4140625 C-33.03259055 -10.4987453 -14.5088077 -8.25351336 0 0 Z " fill="#FB6F36" transform="translate(332.375,156.875)"/>
<path d="M0 0 C8.06122079 6.33474355 12.77960079 14.33880238 16 24 C16.89971649 37.68749014 15.47124239 48.40822828 7.0390625 59.7109375 C0.04567337 67.56175365 -9.58210403 72.54337395 -20.0546875 73.4140625 C-32.0148416 74.00897451 -41.18292213 71.5866589 -50.4375 63.625 C-59.41430599 54.87800024 -64.08923151 45.81880981 -64.5 33 C-64.04104825 19.57195997 -58.74477228 10.23238549 -49.125 1.1875 C-35.05470672 -10.58783282 -14.95509883 -9.45996949 0 0 Z " fill="#FBD845" transform="translate(312,315)"/>
<path d="M0 0 C9.08055838 6.68753373 16.96099084 15.60851082 19 27 C20.21111793 40.45686592 17.63019451 51.48070761 9 62 C0.36506189 71.04697873 -9.39629185 74.96879908 -21.8125 75.375 C-33.48320322 75.17528743 -41.83442585 70.89406262 -50.12890625 62.96484375 C-55.07263942 57.80260303 -57.83336095 52.78145781 -60 46 C-60.495 44.515 -60.495 44.515 -61 43 C-62.01345635 29.69476593 -60.49858469 18.52767068 -51.78515625 7.80859375 C-48.25876944 4.23590865 -44.30802896 1.54741233 -40 -1 C-39.26265625 -1.43699219 -38.5253125 -1.87398438 -37.765625 -2.32421875 C-26.30884466 -7.95384357 -10.65092072 -6.66070698 0 0 Z " fill="#FA6F36" transform="translate(228,117)"/>
<path d="M0 0 C6.20185649 4.39428023 10.67160589 10.14228518 13.15625 17.3828125 C14.72442553 26.64010674 14.42782621 36.35647625 9.51953125 44.52734375 C2.92517645 53.76596953 -4.35007579 58.42726961 -15.48046875 60.52734375 C-23.81783153 61.8004606 -32.0136541 58.52156777 -38.79296875 53.77734375 C-44.8654976 48.8247485 -49.93745601 42.33167266 -51.48046875 34.52734375 C-52.46561904 24.35961982 -51.59245103 16.2305208 -45.5625 7.8671875 C-33.53206503 -6.59062727 -16.24380149 -9.64395774 0 0 Z " fill="#FBD845" transform="translate(396.48046875,289.47265625)"/>
<path d="M0 0 C7.89711836 4.67045643 13.72047433 11.10862029 16.75 19.83203125 C18.862333 29.06028606 17.9466752 38.2447621 13.375 46.5625 C7.89135727 54.36915227 1.30541261 59.85210971 -8.0625 62.1640625 C-19.37617447 63.92320091 -27.19808362 61.91927505 -36.375 55.3125 C-42.74589643 50.10904532 -45.70785508 44.5157213 -47.625 36.5625 C-48.67094478 25.20305316 -47.57739202 17.13181711 -40.3125 8.3125 C-29.77322282 -3.01665877 -14.37183195 -6.62609366 0 0 Z " fill="#FB7036" transform="translate(132.625,153.4375)"/>
<path d="M0 0 C8.10260145 4.56848805 12.82296488 9.7630851 16.1484375 18.47265625 C17.77094439 26.88019197 16.99269981 33.44295216 12.8359375 41.03515625 C8.31393584 47.5383319 2.81375129 52.49607359 -5.1640625 54.03515625 C-14.22353933 54.83385068 -21.69582033 54.57485755 -29.1640625 49.03515625 C-36.11598475 42.99827334 -39.36441423 36.80931946 -40.4375 27.71875 C-40.79660713 19.77695774 -38.6332681 13.42485359 -33.6015625 7.28515625 C-24.67422124 -1.98304713 -12.16347272 -5.51718699 0 0 Z " fill="#FB7036" transform="translate(90.1640625,225.96484375)"/>
<path d="M0 0 C7.61463943 4.75318829 12.87735287 10.47277134 15.44921875 19.109375 C16.91440928 26.2589621 16.27219648 33.68319955 12.87109375 40.16796875 C8.37263517 46.4496001 3.21470872 51.86935625 -4.5078125 53.74609375 C-13.27322714 55.15692055 -21.72409106 54.68647412 -29.2890625 49.76171875 C-35.51015927 44.83135421 -40.34773121 37.31491988 -41.3671875 29.29296875 C-41.65958398 20.92119597 -39.2448885 13.37207413 -34.00390625 6.79296875 C-25.23211421 -2.21990848 -11.76559042 -5.38939948 0 0 Z " fill="#FBD845" transform="translate(429.12890625,221.83203125)"/>
<path d="M0 0 C6.9334354 3.47276782 11.84845299 7.53386241 14.71875 14.8828125 C16.65384148 22.23155275 16.03189828 29.69271599 12.375 36.375 C8.34027138 42.20294134 3.43773932 46.01133813 -3.625 47.375 C-11.04979057 48.02201746 -17.54461111 48.05323025 -23.625 43.375 C-29.40603127 38.00190441 -33.60775545 32.16263736 -34.0625 24.0625 C-33.79359347 16.57153233 -30.65509415 9.84866507 -25.625 4.375 C-17.15169356 -1.27795842 -9.62249366 -3.8295253 0 0 Z " fill="#FBD846" transform="translate(428.625,148.625)"/>
<path d="M0 0 C6.07387189 3.11961115 9.78361574 8.05452419 13.125 13.875 C15.1414548 20.7546693 15.08636028 26.26980564 12 32.8125 C8.29251324 39.43005319 3.58294633 44.3425141 -3.8125 46.5 C-11.68575654 47.40951272 -19.3677311 47.59271948 -25.8125 42.5 C-32.08277602 36.83235921 -34.86361478 30.51206599 -35.3125 22.125 C-35.08338882 15.2421184 -32.85197683 9.45981312 -27.875 4.61328125 C-19.61680024 -1.84625758 -10.03078694 -3.88843542 0 0 Z " fill="#FA7036" transform="translate(85.8125,305.5)"/>
<path d="M0 0 C5.36239586 3.11201423 9.16683505 7.27507635 11.94140625 12.82421875 C13.0681955 18.68352283 12.67150653 24.53520859 9.87890625 29.88671875 C6.25961344 34.8754737 2.49096466 38.07599491 -3.43359375 40.07421875 C-10.04006977 41.0123581 -15.25967149 40.53091425 -20.71484375 36.5625 C-26.4076322 31.63306273 -28.99119683 26.86619235 -29.87109375 19.32421875 C-29.65404479 13.0297988 -26.85913602 7.61574329 -22.5546875 3.10546875 C-16.00464533 -2.00911298 -7.78955295 -2.96328098 0 0 Z " fill="#FBD846" transform="translate(404.43359375,89.92578125)"/>
<path d="M0 0 C4.94258187 2.86202893 8.28342189 6.94845244 11.0625 11.875 C12.65103725 18.38800271 11.91659591 23.37091982 9.02734375 29.32421875 C6.10881714 33.9274925 1.73664292 37.40496706 -3.3125 39.4375 C-10.69738958 40.3332694 -16.39206596 40.05543855 -22.3125 35.4375 C-27.4274778 30.53614077 -29.97308065 26.17111285 -30.625 19 C-29.9836596 11.68871943 -26.50773624 6.38960942 -21.3125 1.4375 C-15.18408608 -2.98065887 -6.82184658 -3.03775126 0 0 Z " fill="#FA7037" transform="translate(108.3125,371.5625)"/>
<path d="M0 0 C4.92265695 2.2855193 7.81049249 5.71694706 11 10 C12.66881717 15.0064515 13.09634876 20.32964015 11.05859375 25.29296875 C8.05687399 30.30838139 4.6690662 34.11031127 -1 36 C-6.9449927 36.69578433 -12.39803004 37.04067914 -17.5 33.5625 C-22.45898643 29.17173077 -25.05764456 23.52651076 -25.5625 16.9375 C-24.66807896 10.67655273 -21.71943663 6.17805487 -17 2 C-11.90103579 -1.30592185 -5.80591799 -0.80159126 0 0 Z " fill="#FB7138" transform="translate(154,409)"/>
<path d="M0 0 C5.62226092 1.96274688 9.3044 5.74317661 12.15234375 10.8984375 C14.32396461 16.28245604 13.37662099 20.58123801 11.3125 25.75 C9.49031275 29.50422267 7.56210766 31.71659765 4 34 C3.01 34.66 2.02 35.32 1 36 C-4.82718687 36.6690762 -10.2166101 36.84476364 -15.5625 34.3125 C-20.83500273 29.31038203 -24.0005069 24.99003091 -24.375 17.625 C-24.22844673 12.11093309 -22.38090669 8.34446424 -18.46875 4.4921875 C-12.53288018 -0.59985769 -7.65484311 -0.82599311 0 0 Z " fill="#FBD846" transform="translate(353,55)"/>
<path d="M0 0 C4.45146251 2.18526342 7.18885145 4.9394521 10 9 C11.62100654 13.86301963 11.39061285 17.7413586 9.875 22.625 C7.23930822 27.36924521 4.2670552 30.24431493 -1 32 C-5.9388636 32.51853818 -9.85354834 32.55199525 -14.375 30.375 C-18.981909 26.20684424 -21.64572521 22.01133571 -22.375 15.8125 C-21.76346805 9.59525855 -18.82655819 5.73957923 -14.375 1.5 C-9.5313983 -0.65271187 -5.21778148 -0.76983661 0 0 Z " fill="#FBD847" transform="translate(300,43)"/>
<path d="M0 0 C5.36787898 1.88869816 8.45991584 4.91983169 11 10 C11.50282832 15.50638223 11.71321529 20.40239776 9.4375 25.5 C4.93824024 30.11462539 1.33136748 32.21155485 -5.0625 32.5 C-11.07266562 32.23551623 -14.27837817 29.86121279 -18.3125 25.5 C-21.28884934 21.09059356 -21.36510211 17.29398055 -21 12 C-17.39181534 1.97726483 -9.94585317 -0.84157219 0 0 Z " fill="#FB7037" transform="translate(205,425)"/>
</svg>
